<?xml version="1.0" encoding="UTF-8" standalone="no"?><!DOCTYPE svg PUBLIC "-//W3C//DTD SVG 1.1//EN" "http://www.w3.org/Graphics/SVG/1.1/DTD/svg11.dtd"><!-- Generated by graphviz version 2.40.1 (20161225.0304)
 --><!-- Title: eventGraph Pages: 1 --><svg xmlns="http://www.w3.org/2000/svg" xmlns:xlink="http://www.w3.org/1999/xlink" width="952pt" height="188pt" viewBox="0.00 0.00 951.51 188.00">
<g id="graph0" class="graph" transform="scale(1 1) rotate(0) translate(4 184)">
<title>eventGraph</title>
<polygon fill="#ffffff" stroke="transparent" points="-4,4 -4,-184 947.5109,-184 947.5109,4 -4,4"/>
<!-- /html/body | baseEvent -->
<g id="node1" class="node">
<title>/html/body | baseEvent</title>
<ellipse fill="none" stroke="#000000" cx="292.7852" cy="-162" rx="99.7378" ry="18"/>
<text text-anchor="middle" x="292.7852" y="-157.8" font-family="Times,serif" font-size="14.00" fill="#000000">/html/body | baseEvent</text>
</g>
<!-- /html/body | keyup -->
<g id="node2" class="node">
<title>/html/body | keyup</title>
<ellipse fill="none" stroke="#000000" cx="83.7852" cy="-90" rx="83.5709" ry="18"/>
<text text-anchor="middle" x="83.7852" y="-85.8" font-family="Times,serif" font-size="14.00" fill="#000000">/html/body | keyup</text>
</g>
<!-- /html/body | baseEvent&#45;&gt;/html/body | keyup -->
<g id="edge1" class="edge">
<title>/html/body | baseEvent-&gt;/html/body | keyup</title>
<path fill="none" stroke="#000000" d="M246.4013,-146.0209C214.3309,-134.9727 171.5528,-120.2357 137.9216,-108.6499"/>
<polygon fill="#000000" stroke="#000000" points="138.8433,-105.2656 128.2486,-105.3175 136.5632,-111.8839 138.8433,-105.2656"/>
</g>
<!-- /html/body | mousedown -->
<g id="node3" class="node">
<title>/html/body | mousedown</title>
<ellipse fill="none" stroke="#000000" cx="292.7852" cy="-90" rx="106.7056" ry="18"/>
<text text-anchor="middle" x="292.7852" y="-85.8" font-family="Times,serif" font-size="14.00" fill="#000000">/html/body | mousedown</text>
</g>
<!-- /html/body | baseEvent&#45;&gt;/html/body | mousedown -->
<g id="edge2" class="edge">
<title>/html/body | baseEvent-&gt;/html/body | mousedown</title>
<path fill="none" stroke="#000000" d="M286.8328,-143.8314C286.0823,-136.131 285.8615,-126.9743 286.1701,-118.4166"/>
<polygon fill="#000000" stroke="#000000" points="289.6644,-118.6161 286.8092,-108.4133 282.6786,-118.1697 289.6644,-118.6161"/>
</g>
<!-- /html/body | baseEvent&#45;&gt;/html/body | mousedown -->
<g id="edge3" class="edge">
<title>/html/body | baseEvent-&gt;/html/body | mousedown</title>
<path fill="none" stroke="#000000" d="M298.7376,-143.8314C299.488,-136.131 299.7089,-126.9743 299.4003,-118.4166"/>
<polygon fill="#000000" stroke="#000000" points="302.8917,-118.1697 298.7612,-108.4133 295.906,-118.6161 302.8917,-118.1697"/>
</g>
<!-- /html/body | keydown -->
<g id="node4" class="node">
<title>/html/body | keydown</title>
<ellipse fill="none" stroke="#000000" cx="512.7852" cy="-90" rx="95.6701" ry="18"/>
<text text-anchor="middle" x="512.7852" y="-85.8" font-family="Times,serif" font-size="14.00" fill="#000000">/html/body | keydown</text>
</g>
<!-- /html/body | baseEvent&#45;&gt;/html/body | keydown -->
<g id="edge4" class="edge">
<title>/html/body | baseEvent-&gt;/html/body | keydown</title>
<path fill="none" stroke="#000000" d="M341.0651,-146.1993C374.7093,-135.1885 419.7428,-120.4502 455.2513,-108.8293"/>
<polygon fill="#000000" stroke="#000000" points="456.5812,-112.0768 464.9965,-105.6399 454.4039,-105.424 456.5812,-112.0768"/>
</g>
<!-- (//a[@id=&#39;search&#45;toggle&#39;])[1] | click -->
<g id="node5" class="node">
<title>(//a[@id='search-toggle'])[1] | click</title>
<ellipse fill="none" stroke="#000000" cx="776.7852" cy="-90" rx="150.7593" ry="18"/>
<text text-anchor="middle" x="776.7852" y="-85.8" font-family="Times,serif" font-size="14.00" fill="#000000">(//a[@id='search-toggle'])[1] | click</text>
</g>
<!-- /html/body | baseEvent&#45;&gt;(//a[@id=&#39;search&#45;toggle&#39;])[1] | click -->
<g id="edge5" class="edge">
<title>/html/body | baseEvent-&gt;(//a[@id='search-toggle'])[1] | click</title>
<path fill="none" stroke="#000000" d="M370.0116,-150.5118C451.8152,-138.3426 581.4562,-119.0572 672.3416,-105.5371"/>
<polygon fill="#000000" stroke="#000000" points="673.0187,-108.9749 682.3948,-104.0415 671.9886,-102.0511 673.0187,-108.9749"/>
</g>
<!-- (//button[@id=&#39;close&#45;search&#39;])[1] | click -->
<g id="node6" class="node">
<title>(//button[@id='close-search'])[1] | click</title>
<ellipse fill="none" stroke="#000000" cx="776.7852" cy="-18" rx="166.9518" ry="18"/>
<text text-anchor="middle" x="776.7852" y="-13.8" font-family="Times,serif" font-size="14.00" fill="#000000">(//button[@id='close-search'])[1] | click</text>
</g>
<!-- (//a[@id=&#39;search&#45;toggle&#39;])[1] | click&#45;&gt;(//button[@id=&#39;close&#45;search&#39;])[1] | click -->
<g id="edge6" class="edge">
<title>(//a[@id='search-toggle'])[1] | click-&gt;(//button[@id='close-search'])[1] | click</title>
<path fill="none" stroke="#000000" d="M776.7852,-71.8314C776.7852,-64.131 776.7852,-54.9743 776.7852,-46.4166"/>
<polygon fill="#000000" stroke="#000000" points="780.2853,-46.4132 776.7852,-36.4133 773.2853,-46.4133 780.2853,-46.4132"/>
</g>
</g>
</svg>